<svg xmlns="http://www.w3.org/2000/svg">

	<symbol id="arrow-down" viewBox="0 0 62 31">
		<path fill="currentColor" d="M31,31c-0.3,0-0.5-0.1-0.7-0.3l-30-29c-0.4-0.4-0.4-1,0-1.4c0.4-0.4,1-0.4,1.4,0L31,28.6L60.3,0.3c0.4-0.4,1-0.4,1.4,0
		c0.4,0.4,0.4,1,0,1.4l-30,29C31.5,30.9,31.3,31,31,31z"/>
	</symbol>

	<symbol id="download" viewBox="0 0 43 44">
		<g fill="currentColor"><path d="M28.9,33.6l-4.2,4.2l0-21.2c0-0.9-0.6-1.7-1.5-1.9c-1.1-0.2-2.1,0.7-2.1,1.8v21.3l-4.2-4.2c-0.6-0.6-1.7-0.8-2.4-0.3 c-0.9,0.7-1,2-0.2,2.7l7.4,7.4c0,0,0,0,0,0l0,0c0.7,0.7,1.8,0.7,2.5,0l0,0c0,0,0,0,0,0l7.4-7.4c0.8-0.8,0.7-2.1-0.2-2.7 C30.6,32.8,29.6,33,28.9,33.6z"/><path d="M40.5,15.3c0.2-0.9,0.3-1.7,0.3-2.6c0-7-5.8-12.6-13-12.6c-5.3,0-10,3.1-12,7.8c-0.5-0.1-1-0.2-1.5-0.2 c-3.1,0-5.7,2-6.6,4.9c-4.9,0.9-8.6,5.7-7.5,11.1C1.1,28,5.2,31,9.6,31h7.3c1,0,1.8-0.8,1.8-1.8c0-1-0.8-1.8-1.8-1.8H9.6 c-2.9,0-5.5-2.1-5.9-4.9C3.2,19,5.8,16,9.2,15.9c0.9,0,1.7-0.7,1.8-1.7c0.1-1.7,1.6-3.1,3.3-3.1c0.6,0,1.1,0.2,1.7,0.5 c0.5,0.3,1.1,0.3,1.6,0.1c0.5-0.2,0.9-0.7,1-1.2c1-4.1,4.8-7,9.1-7c5.2,0,9.4,4.1,9.4,9.1c0,0.9-0.1,1.8-0.4,2.7 c-0.2,0.7,0,1.4,0.6,1.8c1.6,1.3,2.4,3.4,2,5.5c-0.5,2.8-3.1,4.7-5.9,4.7h-4.5c-1,0-1.8,0.8-1.8,1.8c0,1,0.8,1.8,1.8,1.8h4.4 c4.7,0,9-3.4,9.6-8.1C43.3,20.1,42.4,17.3,40.5,15.3z"/></g>
	</symbol>

	<symbol id="arrow-left" viewBox="0 0 39 44">
		<path fill="currentColor" d="M0.1,21.5C0,21.7,0,21.8,0,22c0,0,0,0,0,0c0,0,0,0,0,0c0,0.2,0,0.3,0.1,0.4c0,0.1,0.1,0.1,0.1,0.2c0,0.1,0.1,0.1,0.1,0.2 l19.7,20.8c0.5,0.5,1.2,0.5,1.7,0c0.5-0.5,0.5-1.2,0-1.7L4,23.2h33.8c0.7,0,1.2-0.5,1.2-1.2c0-0.7-0.5-1.2-1.2-1.2H4L21.8,2 c0.5-0.5,0.4-1.2,0-1.7C21.5,0.1,21.2,0,20.9,0c-0.3,0-0.6,0.1-0.9,0.4L0.3,21.2c-0.1,0.1-0.1,0.1-0.1,0.2 C0.2,21.4,0.1,21.5,0.1,21.5z"/>
	</symbol>

	<symbol id="arrow-right" viewBox="0 0 39 44">
		<path fill="currentColor" d="M38.9,22.5C39,22.3,39,22.2,39,22c0,0,0,0,0,0c0,0,0,0,0,0c0-0.2,0-0.3-0.1-0.4c0-0.1-0.1-0.1-0.1-0.2 c0-0.1-0.1-0.1-0.1-0.2L18.9,0.4c-0.5-0.5-1.2-0.5-1.7,0c-0.5,0.5-0.5,1.2,0,1.7L35,20.8H1.2C0.5,20.8,0,21.3,0,22 c0,0.7,0.5,1.2,1.2,1.2H35L17.2,42c-0.5,0.5-0.4,1.2,0,1.7c0.2,0.2,0.5,0.3,0.8,0.3c0.3,0,0.6-0.1,0.9-0.4l19.7-20.8 c0.1-0.1,0.1-0.1,0.1-0.2C38.8,22.6,38.9,22.5,38.9,22.5z"/>
	</symbol>

	<symbol id="play" viewBox="0 0 448 512">
		<path fill="currentColor" d="M424.4 214.7L72.4 6.6C43.8-10.3 0 6.1 0 47.9V464c0 37.5 40.7 60.1 72.4 41.3l352-208c31.4-18.5 31.5-64.1 0-82.6z"/>
	</symbol>

	<symbol id="pdf" viewBox="0 0 512 512">
		<g><path d="m458 145h-404c-24.813 0-45 20.187-45 45v180c0 24.813 20.187 45 45 45h404c24.813 0 45-20.187 45-45v-180c0-24.813-20.187-45-45-45zm-330.259 158.338c-3.835 0-10.387.027-16.52.058v34.597c0 8.284-6.716 15-15 15s-15-6.716-15-15l-.221-113.945c-.013-3.986 1.562-7.814 4.376-10.638s6.638-4.41 10.624-4.41h31.741c26.356 0 47.799 21.16 47.799 47.169s-21.443 47.169-47.799 47.169zm128.768 46.038c-8.934.156-31.281.241-32.228.245-.019 0-.038 0-.057 0-3.958 0-7.757-1.564-10.567-4.354-2.824-2.803-4.418-6.613-4.433-10.592-.001-.4-.224-110.646-.224-110.646-.007-3.983 1.569-7.806 4.383-10.625s6.634-4.404 10.617-4.404h31.33c35.692 0 59.672 28.256 59.672 70.311 0 40.006-24.6 69.473-58.493 70.065zm153.711-86.026c8.284 0 15 6.716 15 15s-6.716 15-15 15h-27.22v42.65c0 8.284-6.716 15-15 15s-15-6.716-15-15v-113.158c0-8.284 6.716-15 15-15h45.863c8.284 0 15 6.716 15 15s-6.716 15-15 15h-30.863v25.508z"/><path d="m255.33 239h-16.303c.023 13.54.105 67.514.147 80.543 6.242-.04 12.926-.095 16.811-.163 20.045-.35 29.018-20.377 29.018-40.069-.001-9.457-2.14-40.311-29.673-40.311z"/><path d="m127.741 239h-16.696c.018 6.675.035 13.776.035 17.169 0 3.965.028 10.842.06 17.228 6.156-.031 12.732-.059 16.602-.059 9.648 0 17.799-7.862 17.799-17.169s-8.152-17.169-17.8-17.169z"/><path d="m442.455 115c-3.477-9.53-8.877-18.338-16.027-25.88l-62.305-65.721c-14.098-14.87-33.936-23.399-54.428-23.399h-199.695c-24.813 0-45 20.187-45 45v70z"/><path d="m65 445v22c0 24.813 20.187 45 45 45h292c24.813 0 45-20.187 45-45v-22z"/></g>
	</symbol>

	<symbol id="slick-arrow-left" viewBox="0 0 492.004 492.004">
		<g fill="currentColor" transform="matrix(-1,-1.2246467991473532e-16,1.2246467991473532e-16,-1,492.00405883789057,492.00396728515636)">
			<path d="M382.678,226.804L163.73,7.86C158.666,2.792,151.906,0,144.698,0s-13.968,2.792-19.032,7.86l-16.124,16.12    c-10.492,10.504-10.492,27.576,0,38.064L293.398,245.9l-184.06,184.06c-5.064,5.068-7.86,11.824-7.86,19.028    c0,7.212,2.796,13.968,7.86,19.04l16.124,16.116c5.068,5.068,11.824,7.86,19.032,7.86s13.968-2.792,19.032-7.86L382.678,265    c5.076-5.084,7.864-11.872,7.848-19.088C390.542,238.668,387.754,231.884,382.678,226.804z"/>
		</g>
	</symbol>

	<symbol id="slick-arrow-right" viewBox="0 0 492.004 492.004">
		<g fill="currentColor">
			<path d="M382.678,226.804L163.73,7.86C158.666,2.792,151.906,0,144.698,0s-13.968,2.792-19.032,7.86l-16.124,16.12    c-10.492,10.504-10.492,27.576,0,38.064L293.398,245.9l-184.06,184.06c-5.064,5.068-7.86,11.824-7.86,19.028    c0,7.212,2.796,13.968,7.86,19.04l16.124,16.116c5.068,5.068,11.824,7.86,19.032,7.86s13.968-2.792,19.032-7.86L382.678,265    c5.076-5.084,7.864-11.872,7.848-19.088C390.542,238.668,387.754,231.884,382.678,226.804z"/>
		</g>
	</symbol>

	<symbol id="fa-calendar-days" viewBox="0 0 448 512">
		<g fill="currentColor">
			<path d="M160 32V64H288V32C288 14.33 302.3 0 320 0C337.7 0 352 14.33 352 32V64H400C426.5 64 448 85.49 448 112V160H0V112C0 85.49 21.49 64 48 64H96V32C96 14.33 110.3 0 128 0C145.7 0 160 14.33 160 32zM0 192H448V464C448 490.5 426.5 512 400 512H48C21.49 512 0 490.5 0 464V192zM64 304C64 312.8 71.16 320 80 320H112C120.8 320 128 312.8 128 304V272C128 263.2 120.8 256 112 256H80C71.16 256 64 263.2 64 272V304zM192 304C192 312.8 199.2 320 208 320H240C248.8 320 256 312.8 256 304V272C256 263.2 248.8 256 240 256H208C199.2 256 192 263.2 192 272V304zM336 256C327.2 256 320 263.2 320 272V304C320 312.8 327.2 320 336 320H368C376.8 320 384 312.8 384 304V272C384 263.2 376.8 256 368 256H336zM64 432C64 440.8 71.16 448 80 448H112C120.8 448 128 440.8 128 432V400C128 391.2 120.8 384 112 384H80C71.16 384 64 391.2 64 400V432zM208 384C199.2 384 192 391.2 192 400V432C192 440.8 199.2 448 208 448H240C248.8 448 256 440.8 256 432V400C256 391.2 248.8 384 240 384H208zM320 432C320 440.8 327.2 448 336 448H368C376.8 448 384 440.8 384 432V400C384 391.2 376.8 384 368 384H336C327.2 384 320 391.2 320 400V432z"/>
		</g>
	</symbol>

	<symbol id="fa-clock" viewBox="0 0 512 512">
		<g fill="currentColor">
			<path d="M256 512C114.6 512 0 397.4 0 256C0 114.6 114.6 0 256 0C397.4 0 512 114.6 512 256C512 397.4 397.4 512 256 512zM232 256C232 264 236 271.5 242.7 275.1L338.7 339.1C349.7 347.3 364.6 344.3 371.1 333.3C379.3 322.3 376.3 307.4 365.3 300L280 243.2V120C280 106.7 269.3 96 255.1 96C242.7 96 231.1 106.7 231.1 120L232 256z"/>
		</g>
	</symbol>

	<symbol id="fa-location-dot" viewBox="0 0 384 512">
		<g fill="currentColor">
			<path d="M168.3 499.2C116.1 435 0 279.4 0 192C0 85.96 85.96 0 192 0C298 0 384 85.96 384 192C384 279.4 267 435 215.7 499.2C203.4 514.5 180.6 514.5 168.3 499.2H168.3zM192 256C227.3 256 256 227.3 256 192C256 156.7 227.3 128 192 128C156.7 128 128 156.7 128 192C128 227.3 156.7 256 192 256z"/>
		</g>
	</symbol>
</svg>